<svg width="22" height="40" viewBox="0 0 22 40" fill="none" xmlns="http://www.w3.org/2000/svg">
<path d="M1.25 23.2283H5.44667V38.7483C5.44667 39.4383 6.005 39.9983 6.69667 39.9983L13.375 40C14.0667 40 14.625 39.4383 14.625 38.75V23.23H18.6033C19.2333 23.23 19.765 22.76 19.8433 22.135L20.6733 15.4683C20.7667 14.725 20.185 14.0633 19.4333 14.0633H14.625C14.8133 9.945 13.9 8.72667 16.5783 8.72667C18.3917 8.51 21.2517 9.42833 21.2517 7.47667V1.515C21.2517 0.89 20.79 0.361667 20.1717 0.276667C19.6483 0.205 17.58 0 15.015 0C3.33167 0 5.73667 12.9533 5.44833 14.0617H1.25C0.56 14.0617 0 14.6217 0 15.3117V21.9783C0 22.6683 0.56 23.2283 1.25 23.2283ZM2.5 16.5633H6.69667C7.38667 16.5633 7.94667 16.0033 7.94667 15.3133V10.0617C7.94667 5.25667 10.5217 2.50167 15.0133 2.50167C16.4767 2.50167 17.8233 2.57333 18.75 2.64667V6.22833C18.08 6.57 12.1233 4.755 12.1233 10.7233V15.315C12.1233 16.005 12.6833 16.565 13.3733 16.565H18.0167L17.4967 20.7317H13.3733C12.6833 20.7317 12.1233 21.2917 12.1233 21.9817V37.5H7.94833V21.98C7.94833 21.29 7.38833 20.73 6.69833 20.73H2.5V16.5633Z" fill="white"/>
</svg>
