<svg width="40" height="40" viewBox="0 0 40 40" fill="none" xmlns="http://www.w3.org/2000/svg">
<path d="M29.1723 0H10.8276C4.85717 0 0 4.85717 0 10.8276V29.1726C0 35.1428 4.85717 39.9999 10.8276 39.9999H29.1726C35.1428 39.9999 39.9999 35.1428 39.9999 29.1726V10.8276C39.9999 4.85717 35.1428 0 29.1723 0V0ZM37.655 29.1726C37.655 33.8497 33.8497 37.655 29.1723 37.655H10.8276C6.1502 37.655 2.34497 33.8497 2.34497 29.1726V10.8276C2.34497 6.1502 6.1502 2.34497 10.8276 2.34497H29.1726C33.8497 2.34497 37.655 6.1502 37.655 10.8276V29.1726Z" fill="white"/>
<path d="M31.1987 5.17871C29.4165 5.17871 27.9669 6.6286 27.9669 8.41052C27.9669 10.1927 29.4165 11.6426 31.1987 11.6426C32.9809 11.6426 34.4308 10.1927 34.4308 8.41052C34.4308 6.62829 32.9809 5.17871 31.1987 5.17871ZM31.1987 9.29736C30.7098 9.29736 30.3119 8.89941 30.3119 8.41052C30.3119 7.92132 30.7098 7.52368 31.1987 7.52368C31.6879 7.52368 32.0859 7.92132 32.0859 8.41052C32.0859 8.89941 31.6879 9.29736 31.1987 9.29736Z" fill="white"/>
<path d="M19.9999 9.06299C13.969 9.06299 9.06274 13.9693 9.06274 20.0002C9.06274 26.031 13.969 30.9373 19.9999 30.9373C26.0308 30.9373 30.9371 26.031 30.9371 20.0002C30.9371 13.9693 26.0308 9.06299 19.9999 9.06299ZM19.9999 28.5924C15.2624 28.5924 11.4077 24.738 11.4077 20.0002C11.4077 15.2626 15.2624 11.408 19.9999 11.408C24.7378 11.408 28.5921 15.2626 28.5921 20.0002C28.5921 24.738 24.7378 28.5924 19.9999 28.5924Z" fill="white"/>
</svg>
