<svg width="40" height="34" viewBox="0 0 40 34" fill="none" xmlns="http://www.w3.org/2000/svg">
<path d="M39.3824 0.926514C38.8938 0.32898 38.162 0 37.3215 0C36.8647 0 36.3807 0.0961304 35.8832 0.286255L2.02399 13.2114C0.227114 13.8971 -0.0148908 14.9261 0.000673131 15.4785C0.0162371 16.0309 0.316225 17.0447 2.14911 17.6279C2.1601 17.6312 2.17108 17.6346 2.18207 17.6376L9.20539 19.6475L13.0036 30.5087C13.5215 31.9894 14.6839 32.9092 16.0377 32.9092C16.8912 32.9092 17.7308 32.5516 18.4656 31.8753L22.8098 27.8754L29.1108 32.9489C29.1114 32.9495 29.1123 32.9498 29.1129 32.9504L29.1727 32.9987C29.1782 33.0029 29.184 33.0075 29.1895 33.0118C29.8899 33.555 30.6544 33.8419 31.4011 33.8422H31.4014C32.8605 33.8422 34.0223 32.7621 34.3607 31.091L39.9085 3.6972C40.1313 2.59766 39.9445 1.61377 39.3824 0.926514ZM11.5549 19.2657L25.105 12.3434L16.6678 21.3086C16.5296 21.4554 16.4316 21.6351 16.3834 21.8307L14.7565 28.4207L11.5549 19.2657ZM16.8778 30.1511C16.8217 30.2026 16.7652 30.2487 16.7087 30.2911L18.2181 24.1779L20.9638 26.3889L16.8778 30.1511ZM37.6115 3.23181L32.0637 30.6259C32.0103 30.8881 31.8397 31.4981 31.4011 31.4981C31.1844 31.4981 30.9122 31.38 30.6336 31.1655L23.4937 25.4166C23.4928 25.4156 23.4916 25.4147 23.4904 25.4141L19.242 21.9931L31.4432 9.02832C31.8339 8.61328 31.8693 7.9776 31.5272 7.52167C31.1848 7.06573 30.5643 6.9223 30.0568 7.1817L9.98908 17.4338L2.87024 15.397L36.7191 2.47589C37.0051 2.36664 37.2047 2.34375 37.3215 2.34375C37.3932 2.34375 37.5208 2.35229 37.5681 2.41058C37.6304 2.48657 37.7097 2.74567 37.6115 3.23181Z" fill="white"/>
</svg>
