<svg width="38" height="38" viewBox="0 0 38 38" fill="none" xmlns="http://www.w3.org/2000/svg">
<path fill-rule="evenodd" clip-rule="evenodd" d="M31.883 5.44968C28.3747 1.93726 23.709 0.00205993 18.7383 0C8.49586 0 0.159988 8.33565 0.155869 18.5809C0.154495 21.8559 1.01006 25.0529 2.63626 27.8709L0 37.5L9.85084 34.9159C12.5652 36.3966 15.621 37.1768 18.7308 37.1777H18.7386C28.9799 37.1777 37.3167 28.8414 37.3206 18.5957C37.3226 13.6304 35.3915 8.96187 31.883 5.44968ZM18.7383 34.0395H18.7319C15.9606 34.0384 13.2426 33.2936 10.871 31.8867L10.3072 31.5518L4.46159 33.0853L6.02188 27.3859L5.65452 26.8016C4.10843 24.3425 3.29201 21.5002 3.29338 18.582C3.29658 10.0665 10.2253 3.13843 18.7445 3.13843C22.8699 3.1398 26.7478 4.74838 29.6638 7.66777C32.5797 10.5872 34.1846 14.4676 34.1833 18.5946C34.1796 27.1108 27.2514 34.0395 18.7383 34.0395ZM27.2102 22.4721C26.746 22.2395 24.4631 21.1166 24.0374 20.9615C23.6121 20.8065 23.3022 20.7294 22.993 21.194C22.6833 21.6586 21.7937 22.7046 21.5227 23.0143C21.2517 23.3242 20.9811 23.3631 20.5167 23.1306C20.0523 22.8983 18.5564 22.4078 16.7828 20.826C15.4026 19.5948 14.4708 18.0743 14.1998 17.6097C13.9293 17.1446 14.1975 16.9176 14.4035 16.6621C14.9062 16.038 15.4095 15.3836 15.5642 15.0739C15.7191 14.764 15.6416 14.4928 15.5253 14.2605C15.4095 14.0282 14.4809 11.7428 14.0941 10.8128C13.7169 9.90784 13.3344 10.0301 13.0492 10.0159C12.7787 10.0024 12.469 9.99962 12.1593 9.99962C11.8499 9.99962 11.3468 10.1157 10.9211 10.5807C10.4956 11.0456 9.29626 12.1687 9.29626 14.4541C9.29626 16.7395 10.96 18.9473 11.1921 19.2572C11.4242 19.5671 14.4662 24.2569 19.1238 26.2678C20.2316 26.7467 21.0963 27.0321 21.7708 27.2461C22.8831 27.5995 23.895 27.5496 24.6952 27.4301C25.5874 27.2967 27.442 26.3068 27.8293 25.2223C28.2161 24.1376 28.2161 23.2082 28.0998 23.0143C27.984 22.8207 27.6743 22.7046 27.2102 22.4721Z" fill="white"/>
</svg>
